<?xml version="1.0" encoding="utf-8"?>
<!-- Generator: Adobe Illustrator 21.0.2, SVG Export Plug-In . SVG Version: 6.00 Build 0)  -->
<svg version="1.1" id="Camada_1" xmlns="http://www.w3.org/2000/svg" xmlns:xlink="http://www.w3.org/1999/xlink" x="0px" y="0px"
	 viewBox="0 0 93 93" style="enable-background:new 0 0 93 93;" xml:space="preserve">
<style type="text/css">
	.st0{fill:url(#SVGID_1_);}
	.st1{fill:#FFFFFF;}
</style>
<linearGradient id="SVGID_1_" gradientUnits="userSpaceOnUse" x1="13.6195" y1="13.6195" x2="79.3805" y2="79.3805">
	<stop  offset="0" style="stop-color:#44B7CE"/>
	<stop  offset="1" style="stop-color:#86CB78"/>
</linearGradient>
<circle class="st0" cx="46.5" cy="46.5" r="46.5"/>
<g>
	<path class="st1" d="M61.151,44.534c0,0-3.405-2.484-3.898-2.698c-0.492-0.213-1.597-0.467-2.143-0.494
		c-0.225-0.011-0.684,0.016-1.146,0.053L41.62,44.238l-0.626,2.299l2.365,1.558c0,0,2.227,1.544,2.927,1.781
		c0.53,0.18,0.837,0.159,1.386,0.085l13.847-3.525C61.41,46.105,61.151,44.534,61.151,44.534z"/>
	<path class="st1" d="M57.444,12.529c-1.313,0.909-4.292,2.994-4.292,2.994l-0.831,0.334l4.643,4.344l1.592-8.327l0,0
		C58.369,11.943,58.037,12.118,57.444,12.529z"/>
	<path class="st1" d="M58.555,11.861c0,0-5.392,3.636-7.592,8.197c-2.199,4.562-4.541,11.831-5.748,16.464
		c-1.205,4.634-2.624,10.192-0.354,12.402c1.944,1.288,2.98,0.999,2.98,0.999s-3.406,0.982-6.671,0.028
		c-3.263-0.955-4.825-5.517-3.405-11.861c1.419-6.343,4.612-14.683,8.941-18.745C51.034,15.283,51.459,14.784,58.555,11.861z"/>
	<path class="st1" d="M43.185,79.471c0,0,5.392-3.636,7.592-8.197c2.2-4.561,4.542-11.83,5.748-16.464
		c1.205-4.633,2.624-10.193,0.354-12.402c-1.945-1.288-2.98-0.998-2.98-0.998s3.407-0.983,6.67-0.028
		c3.263,0.955,4.825,5.517,3.405,11.86c-1.419,6.344-4.612,14.683-8.94,18.745C50.705,76.049,50.28,76.548,43.185,79.471z"/>
	<g>
		<path class="st1" d="M42.04,65.189l-0.083,0.262c0,0-2.163,5.546-7.698,7.113c-1.031,0.293-2.491,0.681-4.184,1.12
			c-0.657,3.234-1.175,5.748-1.35,6.516c-0.061,0.264-0.137,0.58-0.226,0.938c1.866-0.507,3.286-0.928,3.88-1.18
			c2.809-1.191,6.563-4.329,7.486-5.327c0.922-0.998,3.334-6.914,3.334-6.914L42.04,65.189z"/>
	</g>
	<path class="st1" d="M31.777,80.191c0,0,5.535-3.421,7.947-8.696c2.412-5.275,5.108-15.966,6.882-23.734
		c1.774-7.769,3.831-20.028,3.831-20.028l7.451-1.141c0,0-5.109,25.659-5.747,28.439c-0.639,2.78-2.909,11.333-6.174,15.11
		C42.704,73.918,40.291,76.983,31.777,80.191z"/>
</g>
</svg>
