<svg fill="#ffffff" version="1.1" id="Camada_1" xmlns="http://www.w3.org/2000/svg" xmlns:xlink="http://www.w3.org/1999/xlink" x="0px" y="0px"
	 viewBox="0 0 44 85" style="enable-background:new 0 0 44 85;" xml:space="preserve">
<g>
	<path d="M39.907,40.261c0,0-4.162-3.036-4.764-3.297c-0.601-0.261-1.952-0.571-2.619-0.604c-0.274-0.013-0.836,0.02-1.401,0.064
		L16.036,39.9l-0.765,2.81l2.891,1.904c0,0,2.722,1.887,3.577,2.177c0.648,0.22,1.023,0.194,1.694,0.104l16.925-4.309
		C40.223,42.181,39.907,40.261,39.907,40.261z"/>
	<path d="M35.375,1.144c-1.604,1.111-5.246,3.659-5.246,3.659l-1.015,0.408l5.674,5.309l1.946-10.177l0,0
		C36.506,0.428,36.101,0.641,35.375,1.144z"/>
	<path d="M36.734,0.328c0,0-6.59,4.444-9.279,10.018c-2.688,5.575-5.55,14.46-7.026,20.123c-1.473,5.663-3.207,12.457-0.432,15.158
		c2.376,1.574,3.642,1.22,3.642,1.22s-4.163,1.2-8.153,0.035c-3.989-1.167-5.898-6.743-4.162-14.496
		c1.734-7.753,5.637-17.946,10.927-22.911C27.541,4.51,28.061,3.9,36.734,0.328z"/>
	<path d="M17.948,82.962c0,0,6.59-4.444,9.279-10.019c2.689-5.575,5.551-14.459,7.026-20.123c1.473-5.663,3.207-12.458,0.433-15.158
		c-2.377-1.574-3.642-1.22-3.642-1.22s4.164-1.202,8.152-0.035c3.989,1.167,5.898,6.743,4.162,14.495
		c-1.734,7.754-5.637,17.946-10.927,22.911C27.14,78.779,26.62,79.389,17.948,82.962z"/>
	<g>
		<path d="M16.549,65.506l-0.102,0.32c0,0-2.644,6.778-9.408,8.694c-1.26,0.358-3.044,0.833-5.114,1.369
			c-0.803,3.953-1.436,7.025-1.649,7.964C0.201,84.175,0.108,84.561,0,85c2.281-0.619,4.017-1.134,4.742-1.442
			c3.433-1.455,8.021-5.291,9.149-6.511c1.126-1.22,4.075-8.45,4.075-8.45L16.549,65.506z"/>
	</g>
	<path d="M4.005,83.842c0,0,6.765-4.181,9.713-10.628c2.948-6.447,6.243-19.514,8.412-29.009c2.168-9.496,4.682-24.479,4.682-24.479
		l9.107-1.395c0,0-6.244,31.361-7.024,34.759c-0.781,3.397-3.556,13.852-7.546,18.468C17.36,76.175,14.411,79.921,4.005,83.842z"/>
</g>
</svg>
